<svg width="398" height="232" viewBox="0 0 398 232" fill="none" xmlns="http://www.w3.org/2000/svg">
<g opacity="0.4">
<path d="M189.777 114.993C189.707 110.902 189.235 106.759 188.334 102.605C180.553 66.759 143.683 43.6974 105.983 51.0953L95.417 2.41685C142.19 -6.76151 188.233 10.8513 215.924 44.2336C238.261 17.3076 272.882 0.0230174 311.749 0.0230174C345.432 0.0230174 375.927 13.0042 398 33.9919L361.035 69.1382C348.422 57.1452 330.997 49.7274 311.749 49.7274C273.73 49.7274 242.82 78.6703 242.063 114.647C242.075 115.58 242.076 116.512 242.064 117.441C242.871 153.377 273.761 182.272 311.749 182.272C330.997 182.272 348.422 174.855 361.035 162.862L398 198.008C375.927 218.996 345.432 231.977 311.749 231.977C272.873 231.977 238.245 214.684 215.909 187.748C198.738 208.505 174.057 223.827 144.726 229.583C78.7501 242.53 14.2283 202.172 0.612123 139.442L51.8089 129.395C59.5896 165.241 96.4592 188.303 134.16 180.905C166.741 174.511 189.28 147.46 189.778 117.094C189.774 116.73 189.773 116.365 189.773 116C189.773 115.664 189.774 115.329 189.777 114.993Z" fill="white"/>
<path d="M0 95.583C0.578933 92.505 1.28718 89.4576 2.12137 86.4476C5.88425 72.87 12.2098 60.0536 20.7887 48.6249C22.6906 46.0913 24.7032 43.6259 26.8232 41.2355L66.8126 73.298C58.9306 82.1853 53.6474 92.8883 51.4937 104.332L51.4924 104.339L0 95.583Z" fill="white"/>
</g>
</svg>
