<svg width="98" height="60" viewBox="0 0 98 60" fill="none" xmlns="http://www.w3.org/2000/svg">
<path d="M46.729 29.7397C46.7117 28.6817 46.5957 27.6101 46.3736 26.5357C44.4578 17.2652 35.3793 11.301 26.0964 13.2143L23.4946 0.625049C35.0117 -1.74867 46.3488 2.80637 53.1672 11.4397C58.6672 4.47611 67.1921 0.00595278 76.7624 0.00595278C85.0562 0.00595278 92.5648 3.36314 98 8.791L88.8982 17.8806C85.7924 14.7789 81.5017 12.8605 76.7624 12.8605C67.4008 12.8605 59.7899 20.3458 59.6033 29.6501C59.6064 29.8914 59.6066 30.1323 59.6038 30.3727C59.8024 39.6665 67.4085 47.1394 76.7624 47.1394C81.5017 47.1394 85.7924 45.221 88.8982 42.1194L98 51.209C92.5648 56.6368 85.0562 59.994 76.7624 59.994C67.1899 59.994 58.6634 55.5218 53.1635 48.5555C48.9354 53.9237 42.8582 57.8864 35.636 59.375C19.3907 62.7232 3.50346 52.2858 0.150724 36.0625L12.757 33.4643C14.6728 42.7347 23.7513 48.699 33.0343 46.7857C41.0569 45.1322 46.6067 38.1362 46.7292 30.283C46.7283 30.1888 46.7279 30.0944 46.7279 30C46.7279 29.9131 46.7283 29.8264 46.729 29.7397Z" fill="white"/>
<path d="M0 24.7197C0.142551 23.9237 0.316943 23.1356 0.522347 22.3571C1.44889 18.8457 3.00643 15.5311 5.11883 12.5754C5.58713 11.9202 6.0827 11.2826 6.6047 10.6644L16.4513 18.9564C14.5106 21.2548 13.2097 24.0228 12.6794 26.9824L12.679 26.9841L0 24.7197Z" fill="white"/>
</svg>
