<svg width="79" height="48" viewBox="0 0 79 48" fill="none" xmlns="http://www.w3.org/2000/svg">
<path d="M37.6693 23.7918C37.6554 22.9453 37.5618 22.0881 37.3828 21.2286C35.8384 13.8122 28.5201 9.04084 21.0369 10.5715L18.9396 0.500039C28.2237 -1.39893 37.3628 2.2451 42.8593 9.15177C47.293 3.58089 54.165 0.00476223 61.8799 0.00476223C68.5657 0.00476223 74.6186 2.69051 79 7.0328L71.6628 14.3045C69.1591 11.8231 65.7003 10.2884 61.8799 10.2884C54.3333 10.2884 48.198 16.2766 48.0476 23.7201C48.0501 23.9131 48.0502 24.1058 48.048 24.2982C48.208 31.7332 54.3395 37.7115 61.8799 37.7115C65.7003 37.7115 69.1591 36.1768 71.6628 33.6955L79 40.9672C74.6186 45.3094 68.5657 47.9952 61.8799 47.9952C54.1633 47.9952 47.2898 44.4174 42.8563 38.8444C39.4479 43.139 34.549 46.3091 28.7269 47.5C15.6313 50.1785 2.82421 41.8287 0.121502 28.85L10.2837 26.7714C11.8281 34.1878 19.1464 38.9592 26.6297 37.4286C33.0969 36.1057 37.5707 30.509 37.6695 24.2264C37.6688 24.151 37.6684 24.0755 37.6684 24C37.6684 23.9305 37.6687 23.8611 37.6693 23.7918Z" fill="#F3F4F6"/>
<path d="M0 19.7758C0.114914 19.139 0.255495 18.5085 0.421075 17.8857C1.16798 15.0766 2.42355 12.4249 4.12641 10.0603C4.50391 9.53613 4.9034 9.02604 5.3242 8.53148L13.2618 15.1651C11.6973 17.0038 10.6486 19.2183 10.2211 21.5859L10.2209 21.5873L0 19.7758Z" fill="#F3F4F6"/>
</svg>
