<svg width="316" height="112" viewBox="0 0 316 112" fill="none" xmlns="http://www.w3.org/2000/svg">
<path fill-rule="evenodd" clip-rule="evenodd" d="M315 1H1V111H315V1ZM0 0V112H316V0H0Z" fill="#DD4B39"/>
<path d="M9.11523 95.6602V99H7.99023V90.4688H11.1367C12.0703 90.4688 12.8008 90.707 13.3281 91.1836C13.8594 91.6602 14.125 92.291 14.125 93.0762C14.125 93.9043 13.8652 94.543 13.3457 94.9922C12.8301 95.4375 12.0898 95.6602 11.125 95.6602H9.11523ZM9.11523 94.7402H11.1367C11.7383 94.7402 12.1992 94.5996 12.5195 94.3184C12.8398 94.0332 13 93.623 13 93.0879C13 92.5801 12.8398 92.1738 12.5195 91.8691C12.1992 91.5645 11.7598 91.4062 11.2012 91.3945H9.11523V94.7402Z" fill="#DD4B39"/>
<path d="M16.4484 99H15.3644V90H16.4484V99Z" fill="#DD4B39"/>
<path d="M20.6995 99.1172C19.8401 99.1172 19.1409 98.8359 18.6018 98.2734C18.0627 97.707 17.7932 96.9512 17.7932 96.0059V95.8066C17.7932 95.1777 17.9123 94.6172 18.1506 94.125C18.3928 93.6289 18.7288 93.2422 19.1584 92.9648C19.592 92.6836 20.0608 92.543 20.5647 92.543C21.3889 92.543 22.0295 92.8145 22.4866 93.3574C22.9436 93.9004 23.1721 94.6777 23.1721 95.6895V96.1406H18.8772C18.8928 96.7656 19.0745 97.2715 19.4221 97.6582C19.7737 98.041 20.219 98.2324 20.758 98.2324C21.1409 98.2324 21.4651 98.1543 21.7307 97.998C21.9963 97.8418 22.2288 97.6348 22.428 97.377L23.0901 97.8926C22.5588 98.709 21.762 99.1172 20.6995 99.1172ZM20.5647 93.4336C20.1272 93.4336 19.76 93.5938 19.4631 93.9141C19.1663 94.2305 18.9827 94.6758 18.9123 95.25H22.0881V95.168C22.0569 94.6172 21.9084 94.1914 21.6428 93.8906C21.3772 93.5859 21.0178 93.4336 20.5647 93.4336Z" fill="#DD4B39"/>
<path d="M28.2259 99C28.1634 98.875 28.1127 98.6523 28.0736 98.332C27.5697 98.8555 26.9681 99.1172 26.2689 99.1172C25.6439 99.1172 25.1302 98.9414 24.7279 98.5898C24.3295 98.2344 24.1302 97.7852 24.1302 97.2422C24.1302 96.582 24.3802 96.0703 24.8802 95.707C25.3841 95.3398 26.0912 95.1562 27.0013 95.1562H28.056V94.6582C28.056 94.2793 27.9427 93.9785 27.7162 93.7559C27.4896 93.5293 27.1556 93.416 26.7142 93.416C26.3275 93.416 26.0033 93.5137 25.7416 93.709C25.4798 93.9043 25.349 94.1406 25.349 94.418H24.2591C24.2591 94.1016 24.3705 93.7969 24.5931 93.5039C24.8197 93.207 25.1244 92.9727 25.5072 92.8008C25.8939 92.6289 26.3177 92.543 26.7787 92.543C27.5091 92.543 28.0814 92.7266 28.4955 93.0938C28.9095 93.457 29.1244 93.959 29.14 94.5996V97.5176C29.14 98.0996 29.2142 98.5625 29.3627 98.9062V99H28.2259ZM26.4271 98.1738C26.767 98.1738 27.0892 98.0859 27.3939 97.9102C27.6986 97.7344 27.9193 97.5059 28.056 97.2246V95.9238H27.2064C25.8783 95.9238 25.2142 96.3125 25.2142 97.0898C25.2142 97.4297 25.3275 97.6953 25.5541 97.8867C25.7806 98.0781 26.0716 98.1738 26.4271 98.1738Z" fill="#DD4B39"/>
<path d="M34.4106 97.3184C34.4106 97.0254 34.2993 96.7988 34.0766 96.6387C33.8579 96.4746 33.4731 96.334 32.9223 96.2168C32.3755 96.0996 31.9399 95.959 31.6157 95.7949C31.2954 95.6309 31.0571 95.4355 30.9009 95.209C30.7485 94.9824 30.6723 94.7129 30.6723 94.4004C30.6723 93.8809 30.8911 93.4414 31.3286 93.082C31.77 92.7227 32.3325 92.543 33.0161 92.543C33.7348 92.543 34.3169 92.7285 34.7622 93.0996C35.2114 93.4707 35.436 93.9453 35.436 94.5234H34.3462C34.3462 94.2266 34.2192 93.9707 33.9653 93.7559C33.7153 93.541 33.3989 93.4336 33.0161 93.4336C32.6216 93.4336 32.313 93.5195 32.0903 93.6914C31.8677 93.8633 31.7563 94.0879 31.7563 94.3652C31.7563 94.627 31.8598 94.8242 32.0669 94.957C32.2739 95.0898 32.647 95.2168 33.186 95.3379C33.729 95.459 34.1684 95.6035 34.5044 95.7715C34.8403 95.9395 35.0884 96.1426 35.2485 96.3809C35.4126 96.6152 35.4946 96.9023 35.4946 97.2422C35.4946 97.8086 35.268 98.2637 34.8149 98.6074C34.3618 98.9473 33.7739 99.1172 33.0513 99.1172C32.5434 99.1172 32.0942 99.0273 31.7036 98.8477C31.313 98.668 31.0063 98.418 30.7837 98.0977C30.5649 97.7734 30.4555 97.4238 30.4555 97.0488H31.5395C31.5591 97.4121 31.7036 97.7012 31.9731 97.916C32.2466 98.127 32.6059 98.2324 33.0513 98.2324C33.4614 98.2324 33.7895 98.1504 34.0356 97.9863C34.2856 97.8184 34.4106 97.5957 34.4106 97.3184Z" fill="#DD4B39"/>
<path d="M39.4176 99.1172C38.5582 99.1172 37.859 98.8359 37.3199 98.2734C36.7809 97.707 36.5113 96.9512 36.5113 96.0059V95.8066C36.5113 95.1777 36.6305 94.6172 36.8687 94.125C37.1109 93.6289 37.4469 93.2422 37.8766 92.9648C38.3102 92.6836 38.7789 92.543 39.2828 92.543C40.107 92.543 40.7477 92.8145 41.2047 93.3574C41.6617 93.9004 41.8902 94.6777 41.8902 95.6895V96.1406H37.5953C37.6109 96.7656 37.7926 97.2715 38.1402 97.6582C38.4918 98.041 38.9371 98.2324 39.4762 98.2324C39.859 98.2324 40.1832 98.1543 40.4488 97.998C40.7145 97.8418 40.9469 97.6348 41.1461 97.377L41.8082 97.8926C41.277 98.709 40.4801 99.1172 39.4176 99.1172ZM39.2828 93.4336C38.8453 93.4336 38.4781 93.5938 38.1812 93.9141C37.8844 94.2305 37.7008 94.6758 37.6305 95.25H40.8063V95.168C40.775 94.6172 40.6266 94.1914 40.3609 93.8906C40.0953 93.5859 39.7359 93.4336 39.2828 93.4336Z" fill="#DD4B39"/>
<path d="M47.9784 97.5293L49.5487 92.6602H50.6561L48.3827 99H47.5565L45.2596 92.6602H46.367L47.9784 97.5293Z" fill="#DD4B39"/>
<path d="M54.1279 99.1172C53.2685 99.1172 52.5693 98.8359 52.0302 98.2734C51.4912 97.707 51.2216 96.9512 51.2216 96.0059V95.8066C51.2216 95.1777 51.3408 94.6172 51.5791 94.125C51.8213 93.6289 52.1572 93.2422 52.5869 92.9648C53.0205 92.6836 53.4892 92.543 53.9931 92.543C54.8173 92.543 55.458 92.8145 55.915 93.3574C56.372 93.9004 56.6005 94.6777 56.6005 95.6895V96.1406H52.3056C52.3213 96.7656 52.5029 97.2715 52.8505 97.6582C53.2021 98.041 53.6474 98.2324 54.1865 98.2324C54.5693 98.2324 54.8935 98.1543 55.1591 97.998C55.4248 97.8418 55.6572 97.6348 55.8564 97.377L56.5185 97.8926C55.9873 98.709 55.1904 99.1172 54.1279 99.1172ZM53.9931 93.4336C53.5556 93.4336 53.1884 93.5938 52.8916 93.9141C52.5947 94.2305 52.4111 94.6758 52.3408 95.25H55.5166V95.168C55.4853 94.6172 55.3369 94.1914 55.0713 93.8906C54.8056 93.5859 54.4463 93.4336 53.9931 93.4336Z" fill="#DD4B39"/>
<path d="M60.8048 93.6328C60.6407 93.6055 60.463 93.5918 60.2716 93.5918C59.5606 93.5918 59.0782 93.8945 58.8243 94.5V99H57.7403V92.6602H58.795L58.8126 93.3926C59.168 92.8262 59.672 92.543 60.3243 92.543C60.5352 92.543 60.6954 92.5703 60.8048 92.625V93.6328Z" fill="#DD4B39"/>
<path d="M62.8645 99H61.7805V92.6602H62.8645V99ZM61.6926 90.9785C61.6926 90.8027 61.7453 90.6543 61.8508 90.5332C61.9602 90.4121 62.1203 90.3516 62.3312 90.3516C62.5422 90.3516 62.7023 90.4121 62.8117 90.5332C62.9211 90.6543 62.9758 90.8027 62.9758 90.9785C62.9758 91.1543 62.9211 91.3008 62.8117 91.418C62.7023 91.5352 62.5422 91.5938 62.3312 91.5938C62.1203 91.5938 61.9602 91.5352 61.8508 91.418C61.7453 91.3008 61.6926 91.1543 61.6926 90.9785Z" fill="#DD4B39"/>
<path d="M65.0179 99V93.498H64.0159V92.6602H65.0179V92.0098C65.0179 91.3301 65.1995 90.8047 65.5628 90.4336C65.9261 90.0625 66.4398 89.877 67.1038 89.877C67.3538 89.877 67.6019 89.9102 67.848 89.9766L67.7894 90.8555C67.6058 90.8203 67.4105 90.8027 67.2034 90.8027C66.8519 90.8027 66.5804 90.9062 66.389 91.1133C66.1976 91.3164 66.1019 91.6094 66.1019 91.9922V92.6602H67.4554V93.498H66.1019V99H65.0179Z" fill="#DD4B39"/>
<path d="M70.6108 97.4121L72.0873 92.6602H73.2475L70.6987 99.9785C70.3041 101.033 69.6772 101.561 68.8178 101.561L68.6127 101.543L68.2084 101.467V100.588L68.5014 100.611C68.8686 100.611 69.1538 100.537 69.3569 100.389C69.5639 100.24 69.7338 99.9688 69.8666 99.5742L70.1069 98.9297L67.8452 92.6602H69.0288L70.6108 97.4121Z" fill="#DD4B39"/>
<path d="M78.4274 91.125V92.6602H79.611V93.498H78.4274V97.4297C78.4274 97.6836 78.4802 97.875 78.5856 98.0039C78.6911 98.1289 78.8708 98.1914 79.1247 98.1914C79.2497 98.1914 79.4216 98.168 79.6403 98.1211V99C79.3552 99.0781 79.0778 99.1172 78.8083 99.1172C78.3239 99.1172 77.9587 98.9707 77.7126 98.6777C77.4665 98.3848 77.3434 97.9688 77.3434 97.4297V93.498H76.1891V92.6602H77.3434V91.125H78.4274Z" fill="#DD4B39"/>
<path d="M81.8465 93.4277C82.327 92.8379 82.952 92.543 83.7215 92.543C85.0613 92.543 85.7371 93.2988 85.7488 94.8105V99H84.6648V94.8047C84.6609 94.3477 84.5555 94.0098 84.3484 93.791C84.1453 93.5723 83.827 93.4629 83.3934 93.4629C83.0418 93.4629 82.7332 93.5566 82.4676 93.7441C82.202 93.9316 81.9949 94.1777 81.8465 94.4824V99H80.7625V90H81.8465V93.4277Z" fill="#DD4B39"/>
<path d="M91.1659 99C91.1034 98.875 91.0527 98.6523 91.0136 98.332C90.5097 98.8555 89.9081 99.1172 89.2089 99.1172C88.5839 99.1172 88.0702 98.9414 87.6679 98.5898C87.2695 98.2344 87.0702 97.7852 87.0702 97.2422C87.0702 96.582 87.3202 96.0703 87.8202 95.707C88.3241 95.3398 89.0312 95.1562 89.9413 95.1562H90.996V94.6582C90.996 94.2793 90.8827 93.9785 90.6562 93.7559C90.4296 93.5293 90.0956 93.416 89.6542 93.416C89.2675 93.416 88.9433 93.5137 88.6816 93.709C88.4198 93.9043 88.289 94.1406 88.289 94.418H87.1991C87.1991 94.1016 87.3105 93.7969 87.5331 93.5039C87.7597 93.207 88.0644 92.9727 88.4472 92.8008C88.8339 92.6289 89.2577 92.543 89.7187 92.543C90.4491 92.543 91.0214 92.7266 91.4355 93.0938C91.8495 93.457 92.0644 93.959 92.08 94.5996V97.5176C92.08 98.0996 92.1542 98.5625 92.3027 98.9062V99H91.1659ZM89.3671 98.1738C89.707 98.1738 90.0292 98.0859 90.3339 97.9102C90.6386 97.7344 90.8593 97.5059 90.996 97.2246V95.9238H90.1464C88.8183 95.9238 88.1542 96.3125 88.1542 97.0898C88.1542 97.4297 88.2675 97.6953 88.4941 97.8867C88.7206 98.0781 89.0116 98.1738 89.3671 98.1738Z" fill="#DD4B39"/>
<path d="M95.1299 91.125V92.6602H96.3135V93.498H95.1299V97.4297C95.1299 97.6836 95.1827 97.875 95.2881 98.0039C95.3936 98.1289 95.5733 98.1914 95.8272 98.1914C95.9522 98.1914 96.1241 98.168 96.3428 98.1211V99C96.0577 99.0781 95.7803 99.1172 95.5108 99.1172C95.0264 99.1172 94.6612 98.9707 94.4151 98.6777C94.169 98.3848 94.0459 97.9688 94.0459 97.4297V93.498H92.8916V92.6602H94.0459V91.125H95.1299Z" fill="#DD4B39"/>
<path d="M102.396 97.4121L103.872 92.6602H105.033L102.484 99.9785C102.089 101.033 101.462 101.561 100.603 101.561L100.398 101.543L99.9934 101.467V100.588L100.286 100.611C100.654 100.611 100.939 100.537 101.142 100.389C101.349 100.24 101.519 99.9688 101.652 99.5742L101.892 98.9297L99.6302 92.6602H100.814L102.396 97.4121Z" fill="#DD4B39"/>
<path d="M105.504 95.7715C105.504 95.1504 105.625 94.5918 105.868 94.0957C106.114 93.5996 106.454 93.2168 106.887 92.9473C107.325 92.6777 107.823 92.543 108.381 92.543C109.245 92.543 109.942 92.8418 110.473 93.4395C111.008 94.0371 111.276 94.832 111.276 95.8242V95.9004C111.276 96.5176 111.157 97.0723 110.918 97.5645C110.684 98.0527 110.346 98.4336 109.905 98.707C109.467 98.9805 108.963 99.1172 108.393 99.1172C107.534 99.1172 106.836 98.8184 106.301 98.2207C105.77 97.623 105.504 96.832 105.504 95.8477V95.7715ZM106.594 95.9004C106.594 96.6035 106.756 97.168 107.08 97.5938C107.409 98.0195 107.846 98.2324 108.393 98.2324C108.944 98.2324 109.381 98.0176 109.705 97.5879C110.03 97.1543 110.192 96.5488 110.192 95.7715C110.192 95.0762 110.026 94.5137 109.694 94.084C109.366 93.6504 108.928 93.4336 108.381 93.4336C107.846 93.4336 107.414 93.6465 107.086 94.0723C106.758 94.498 106.594 95.1074 106.594 95.9004Z" fill="#DD4B39"/>
<path d="M116.429 98.373C116.007 98.8691 115.388 99.1172 114.572 99.1172C113.896 99.1172 113.38 98.9219 113.025 98.5312C112.673 98.1367 112.496 97.5547 112.492 96.7852V92.6602H113.576V96.7559C113.576 97.7168 113.966 98.1973 114.748 98.1973C115.576 98.1973 116.126 97.8887 116.4 97.2715V92.6602H117.484V99H116.453L116.429 98.373Z" fill="#DD4B39"/>
<path d="M125.787 99C125.724 98.875 125.674 98.6523 125.635 98.332C125.131 98.8555 124.529 99.1172 123.83 99.1172C123.205 99.1172 122.691 98.9414 122.289 98.5898C121.89 98.2344 121.691 97.7852 121.691 97.2422C121.691 96.582 121.941 96.0703 122.441 95.707C122.945 95.3398 123.652 95.1562 124.562 95.1562H125.617V94.6582C125.617 94.2793 125.504 93.9785 125.277 93.7559C125.051 93.5293 124.717 93.416 124.275 93.416C123.888 93.416 123.564 93.5137 123.302 93.709C123.041 93.9043 122.91 94.1406 122.91 94.418H121.82C121.82 94.1016 121.931 93.7969 122.154 93.5039C122.381 93.207 122.685 92.9727 123.068 92.8008C123.455 92.6289 123.879 92.543 124.34 92.543C125.07 92.543 125.642 92.7266 126.056 93.0938C126.47 93.457 126.685 93.959 126.701 94.5996V97.5176C126.701 98.0996 126.775 98.5625 126.924 98.9062V99H125.787ZM123.988 98.1738C124.328 98.1738 124.65 98.0859 124.955 97.9102C125.26 97.7344 125.48 97.5059 125.617 97.2246V95.9238H124.767C123.439 95.9238 122.775 96.3125 122.775 97.0898C122.775 97.4297 122.888 97.6953 123.115 97.8867C123.342 98.0781 123.633 98.1738 123.988 98.1738Z" fill="#DD4B39"/>
<path d="M131.345 93.6328C131.181 93.6055 131.003 93.5918 130.811 93.5918C130.1 93.5918 129.618 93.8945 129.364 94.5V99H128.28V92.6602H129.335L129.352 93.3926C129.708 92.8262 130.212 92.543 130.864 92.543C131.075 92.543 131.235 92.5703 131.345 92.625V93.6328Z" fill="#DD4B39"/>
<path d="M134.74 99.1172C133.881 99.1172 133.182 98.8359 132.643 98.2734C132.104 97.707 131.834 96.9512 131.834 96.0059V95.8066C131.834 95.1777 131.953 94.6172 132.191 94.125C132.434 93.6289 132.77 93.2422 133.199 92.9648C133.633 92.6836 134.102 92.543 134.605 92.543C135.43 92.543 136.07 92.8145 136.527 93.3574C136.984 93.9004 137.213 94.6777 137.213 95.6895V96.1406H132.918C132.934 96.7656 133.115 97.2715 133.463 97.6582C133.814 98.041 134.26 98.2324 134.799 98.2324C135.182 98.2324 135.506 98.1543 135.771 97.998C136.037 97.8418 136.27 97.6348 136.469 97.377L137.131 97.8926C136.6 98.709 135.803 99.1172 134.74 99.1172ZM134.605 93.4336C134.168 93.4336 133.801 93.5938 133.504 93.9141C133.207 94.2305 133.023 94.6758 132.953 95.25H136.129V95.168C136.098 94.6172 135.949 94.1914 135.684 93.8906C135.418 93.5859 135.059 93.4336 134.605 93.4336Z" fill="#DD4B39"/>
<path d="M142.235 92.6602L142.27 93.457C142.754 92.8477 143.387 92.543 144.168 92.543C145.508 92.543 146.184 93.2988 146.196 94.8105V99H145.112V94.8047C145.108 94.3477 145.002 94.0098 144.795 93.791C144.592 93.5723 144.274 93.4629 143.84 93.4629C143.489 93.4629 143.18 93.5566 142.914 93.7441C142.649 93.9316 142.442 94.1777 142.293 94.4824V99H141.209V92.6602H142.235Z" fill="#DD4B39"/>
<path d="M147.423 95.7715C147.423 95.1504 147.544 94.5918 147.786 94.0957C148.033 93.5996 148.372 93.2168 148.806 92.9473C149.244 92.6777 149.742 92.543 150.3 92.543C151.163 92.543 151.861 92.8418 152.392 93.4395C152.927 94.0371 153.195 94.832 153.195 95.8242V95.9004C153.195 96.5176 153.076 97.0723 152.837 97.5645C152.603 98.0527 152.265 98.4336 151.824 98.707C151.386 98.9805 150.882 99.1172 150.312 99.1172C149.452 99.1172 148.755 98.8184 148.22 98.2207C147.689 97.623 147.423 96.832 147.423 95.8477V95.7715ZM148.513 95.9004C148.513 96.6035 148.675 97.168 148.999 97.5938C149.327 98.0195 149.765 98.2324 150.312 98.2324C150.863 98.2324 151.3 98.0176 151.624 97.5879C151.949 97.1543 152.111 96.5488 152.111 95.7715C152.111 95.0762 151.945 94.5137 151.613 94.084C151.285 93.6504 150.847 93.4336 150.3 93.4336C149.765 93.4336 149.333 93.6465 149.005 94.0723C148.677 94.498 148.513 95.1074 148.513 95.9004Z" fill="#DD4B39"/>
<path d="M155.905 91.125V92.6602H157.088V93.498H155.905V97.4297C155.905 97.6836 155.958 97.875 156.063 98.0039C156.168 98.1289 156.348 98.1914 156.602 98.1914C156.727 98.1914 156.899 98.168 157.118 98.1211V99C156.833 99.0781 156.555 99.1172 156.286 99.1172C155.801 99.1172 155.436 98.9707 155.19 98.6777C154.944 98.3848 154.821 97.9688 154.821 97.4297V93.498H153.666V92.6602H154.821V91.125H155.905Z" fill="#DD4B39"/>
<path d="M165.01 99C164.948 98.875 164.897 98.6523 164.858 98.332C164.354 98.8555 163.753 99.1172 163.053 99.1172C162.428 99.1172 161.915 98.9414 161.512 98.5898C161.114 98.2344 160.915 97.7852 160.915 97.2422C160.915 96.582 161.165 96.0703 161.665 95.707C162.169 95.3398 162.876 95.1562 163.786 95.1562H164.841V94.6582C164.841 94.2793 164.727 93.9785 164.501 93.7559C164.274 93.5293 163.94 93.416 163.499 93.416C163.112 93.416 162.788 93.5137 162.526 93.709C162.264 93.9043 162.134 94.1406 162.134 94.418H161.044C161.044 94.1016 161.155 93.7969 161.378 93.5039C161.604 93.207 161.909 92.9727 162.292 92.8008C162.678 92.6289 163.102 92.543 163.563 92.543C164.294 92.543 164.866 92.7266 165.28 93.0938C165.694 93.457 165.909 93.959 165.925 94.5996V97.5176C165.925 98.0996 165.999 98.5625 166.147 98.9062V99H165.01ZM163.212 98.1738C163.551 98.1738 163.874 98.0859 164.178 97.9102C164.483 97.7344 164.704 97.5059 164.841 97.2246V95.9238H163.991C162.663 95.9238 161.999 96.3125 161.999 97.0898C161.999 97.4297 162.112 97.6953 162.339 97.8867C162.565 98.0781 162.856 98.1738 163.212 98.1738Z" fill="#DD4B39"/>
<path d="M173.425 93.6328C173.261 93.6055 173.083 93.5918 172.892 93.5918C172.181 93.5918 171.698 93.8945 171.444 94.5V99H170.36V92.6602H171.415L171.433 93.3926C171.788 92.8262 172.292 92.543 172.944 92.543C173.155 92.543 173.315 92.5703 173.425 92.625V93.6328Z" fill="#DD4B39"/>
<path d="M173.902 95.7715C173.902 95.1504 174.024 94.5918 174.266 94.0957C174.512 93.5996 174.852 93.2168 175.285 92.9473C175.723 92.6777 176.221 92.543 176.779 92.543C177.643 92.543 178.34 92.8418 178.871 93.4395C179.406 94.0371 179.674 94.832 179.674 95.8242V95.9004C179.674 96.5176 179.555 97.0723 179.316 97.5645C179.082 98.0527 178.744 98.4336 178.303 98.707C177.865 98.9805 177.361 99.1172 176.791 99.1172C175.932 99.1172 175.234 98.8184 174.699 98.2207C174.168 97.623 173.902 96.832 173.902 95.8477V95.7715ZM174.992 95.9004C174.992 96.6035 175.154 97.168 175.479 97.5938C175.807 98.0195 176.244 98.2324 176.791 98.2324C177.342 98.2324 177.779 98.0176 178.104 97.5879C178.428 97.1543 178.59 96.5488 178.59 95.7715C178.59 95.0762 178.424 94.5137 178.092 94.084C177.764 93.6504 177.326 93.4336 176.779 93.4336C176.244 93.4336 175.813 93.6465 175.484 94.0723C175.156 94.498 174.992 95.1074 174.992 95.9004Z" fill="#DD4B39"/>
<path d="M186.28 95.9004C186.28 96.8691 186.058 97.6484 185.613 98.2383C185.167 98.8242 184.57 99.1172 183.82 99.1172C183.019 99.1172 182.4 98.834 181.962 98.2676L181.909 99H180.913V90H181.997V93.3574C182.435 92.8145 183.038 92.543 183.808 92.543C184.577 92.543 185.181 92.834 185.618 93.416C186.06 93.998 186.28 94.7949 186.28 95.8066V95.9004ZM185.196 95.7773C185.196 95.0391 185.054 94.4688 184.769 94.0664C184.484 93.6641 184.073 93.4629 183.538 93.4629C182.823 93.4629 182.31 93.7949 181.997 94.459V97.2012C182.329 97.8652 182.847 98.1973 183.55 98.1973C184.07 98.1973 184.474 97.9961 184.763 97.5938C185.052 97.1914 185.196 96.5859 185.196 95.7773Z" fill="#DD4B39"/>
<path d="M187.244 95.7715C187.244 95.1504 187.366 94.5918 187.608 94.0957C187.854 93.5996 188.194 93.2168 188.627 92.9473C189.065 92.6777 189.563 92.543 190.121 92.543C190.985 92.543 191.682 92.8418 192.213 93.4395C192.748 94.0371 193.016 94.832 193.016 95.8242V95.9004C193.016 96.5176 192.897 97.0723 192.659 97.5645C192.424 98.0527 192.086 98.4336 191.645 98.707C191.207 98.9805 190.703 99.1172 190.133 99.1172C189.274 99.1172 188.576 98.8184 188.041 98.2207C187.51 97.623 187.244 96.832 187.244 95.8477V95.7715ZM188.334 95.9004C188.334 96.6035 188.496 97.168 188.821 97.5938C189.149 98.0195 189.586 98.2324 190.133 98.2324C190.684 98.2324 191.121 98.0176 191.446 97.5879C191.77 97.1543 191.932 96.5488 191.932 95.7715C191.932 95.0762 191.766 94.5137 191.434 94.084C191.106 93.6504 190.668 93.4336 190.121 93.4336C189.586 93.4336 189.155 93.6465 188.826 94.0723C188.498 94.498 188.334 95.1074 188.334 95.9004Z" fill="#DD4B39"/>
<path d="M195.726 91.125V92.6602H196.91V93.498H195.726V97.4297C195.726 97.6836 195.779 97.875 195.884 98.0039C195.99 98.1289 196.169 98.1914 196.423 98.1914C196.548 98.1914 196.72 98.168 196.939 98.1211V99C196.654 99.0781 196.376 99.1172 196.107 99.1172C195.622 99.1172 195.257 98.9707 195.011 98.6777C194.765 98.3848 194.642 97.9688 194.642 97.4297V93.498H193.488V92.6602H194.642V91.125H195.726Z" fill="#DD4B39"/>
<path d="M198.085 98.4316C198.085 98.2441 198.139 98.0879 198.249 97.9629C198.362 97.8379 198.53 97.7754 198.753 97.7754C198.975 97.7754 199.143 97.8379 199.256 97.9629C199.374 98.0879 199.432 98.2441 199.432 98.4316C199.432 98.6113 199.374 98.7617 199.256 98.8828C199.143 99.0039 198.975 99.0645 198.753 99.0645C198.53 99.0645 198.362 99.0039 198.249 98.8828C198.139 98.7617 198.085 98.6113 198.085 98.4316Z" fill="#DD4B39"/>
<g filter="url(#filter0_d_814_3873)">
<rect x="7" y="5" width="302" height="76" rx="3" fill="#F9F9F9"/>
<rect x="7.5" y="5.5" width="301" height="75" rx="2.5" stroke="#D3D3D3"/>
</g>
<path d="M245.237 56.5273C245.101 56.5046 244.952 56.4932 244.793 56.4932C244.201 56.4932 243.799 56.7454 243.587 57.25V61H242.684V55.7168H243.562L243.577 56.3271C243.873 55.8551 244.293 55.6191 244.837 55.6191C245.013 55.6191 245.146 55.6419 245.237 55.6875V56.5273Z" fill="#555555"/>
<path d="M248.167 61.0977C247.451 61.0977 246.868 60.8633 246.419 60.3945C245.97 59.9225 245.745 59.2926 245.745 58.5049V58.3389C245.745 57.8148 245.844 57.3477 246.043 56.9375C246.245 56.5241 246.525 56.2018 246.883 55.9707C247.244 55.7363 247.635 55.6191 248.055 55.6191C248.742 55.6191 249.275 55.8454 249.656 56.2979C250.037 56.7503 250.228 57.3981 250.228 58.2412V58.6172H246.648C246.661 59.138 246.813 59.5596 247.103 59.8818C247.396 60.2008 247.767 60.3604 248.216 60.3604C248.535 60.3604 248.805 60.2952 249.026 60.165C249.248 60.0348 249.441 59.8623 249.607 59.6475L250.159 60.0771C249.716 60.7575 249.052 61.0977 248.167 61.0977ZM248.055 56.3613C247.69 56.3613 247.384 56.4948 247.137 56.7617C246.889 57.0254 246.736 57.3965 246.678 57.875H249.324V57.8066C249.298 57.3477 249.174 56.9928 248.953 56.7422C248.732 56.4883 248.432 56.3613 248.055 56.3613Z" fill="#555555"/>
<path d="M256.648 58.7441C256.561 59.4961 256.282 60.0771 255.813 60.4873C255.348 60.8942 254.728 61.0977 253.953 61.0977C253.113 61.0977 252.439 60.7965 251.932 60.1943C251.427 59.5921 251.175 58.7865 251.175 57.7773V57.0938C251.175 56.4329 251.292 55.8519 251.526 55.3506C251.764 54.8493 252.099 54.4652 252.532 54.1982C252.965 53.9281 253.466 53.793 254.036 53.793C254.791 53.793 255.397 54.0046 255.853 54.4277C256.308 54.8477 256.574 55.4303 256.648 56.1758H255.706C255.625 55.6094 255.447 55.1992 255.174 54.9453C254.904 54.6914 254.524 54.5645 254.036 54.5645C253.437 54.5645 252.967 54.7858 252.625 55.2285C252.286 55.6712 252.117 56.3011 252.117 57.1182V57.8066C252.117 58.5781 252.278 59.1917 252.601 59.6475C252.923 60.1032 253.374 60.3311 253.953 60.3311C254.474 60.3311 254.873 60.2139 255.149 59.9795C255.429 59.7419 255.615 59.3301 255.706 58.7441H256.648Z" fill="#555555"/>
<path d="M261.858 59.1445H258.88L258.211 61H257.244L259.959 53.8906H260.779L263.499 61H262.537L261.858 59.1445ZM259.163 58.373H261.58L260.369 55.0479L259.163 58.373Z" fill="#555555"/>
<path d="M265.394 58.2168V61H264.456V53.8906H267.078C267.856 53.8906 268.465 54.0892 268.904 54.4863C269.347 54.8835 269.568 55.4092 269.568 56.0635C269.568 56.7536 269.352 57.2858 268.919 57.6602C268.489 58.0312 267.872 58.2168 267.068 58.2168H265.394ZM265.394 57.4502H267.078C267.579 57.4502 267.964 57.333 268.23 57.0986C268.497 56.861 268.631 56.5192 268.631 56.0732C268.631 55.6501 268.497 55.3115 268.23 55.0576C267.964 54.8037 267.597 54.6719 267.132 54.6621H265.394V57.4502Z" fill="#555555"/>
<path d="M275.677 54.6621H273.392V61H272.459V54.6621H270.179V53.8906H275.677V54.6621Z" fill="#555555"/>
<path d="M281.824 58.7441C281.736 59.4961 281.458 60.0771 280.989 60.4873C280.524 60.8942 279.904 61.0977 279.129 61.0977C278.289 61.0977 277.615 60.7965 277.107 60.1943C276.603 59.5921 276.351 58.7865 276.351 57.7773V57.0938C276.351 56.4329 276.468 55.8519 276.702 55.3506C276.94 54.8493 277.275 54.4652 277.708 54.1982C278.141 53.9281 278.642 53.793 279.212 53.793C279.967 53.793 280.573 54.0046 281.028 54.4277C281.484 54.8477 281.749 55.4303 281.824 56.1758H280.882C280.8 55.6094 280.623 55.1992 280.35 54.9453C280.079 54.6914 279.7 54.5645 279.212 54.5645C278.613 54.5645 278.143 54.7858 277.801 55.2285C277.462 55.6712 277.293 56.3011 277.293 57.1182V57.8066C277.293 58.5781 277.454 59.1917 277.776 59.6475C278.099 60.1032 278.549 60.3311 279.129 60.3311C279.65 60.3311 280.049 60.2139 280.325 59.9795C280.605 59.7419 280.791 59.3301 280.882 58.7441H281.824Z" fill="#555555"/>
<path d="M288.572 61H287.63V57.7139H284.046V61H283.108V53.8906H284.046V56.9473H287.63V53.8906H288.572V61Z" fill="#555555"/>
<path d="M294.251 59.1445H291.272L290.604 61H289.637L292.352 53.8906H293.172L295.892 61H294.93L294.251 59.1445ZM291.556 58.373H293.973L292.762 55.0479L291.556 58.373Z" fill="#555555"/>
<path d="M241.75 69.5391V71.7656H241V66.0781H243.098C243.72 66.0781 244.207 66.237 244.559 66.5547C244.913 66.8724 245.09 67.293 245.09 67.8164C245.09 68.3685 244.917 68.7943 244.57 69.0938C244.227 69.3906 243.733 69.5391 243.09 69.5391H241.75ZM241.75 68.9258H243.098C243.499 68.9258 243.806 68.832 244.02 68.6445C244.233 68.4544 244.34 68.181 244.34 67.8242C244.34 67.4857 244.233 67.2148 244.02 67.0117C243.806 66.8086 243.513 66.7031 243.141 66.6953H241.75V68.9258Z" fill="#555555"/>
<path d="M247.977 68.1875C247.867 68.1693 247.749 68.1602 247.621 68.1602C247.147 68.1602 246.826 68.362 246.656 68.7656V71.7656H245.934V67.5391H246.637L246.648 68.0273C246.885 67.6497 247.221 67.4609 247.656 67.4609C247.797 67.4609 247.904 67.4792 247.977 67.5156V68.1875Z" fill="#555555"/>
<path d="M249.43 71.7656H248.707V67.5391H249.43V71.7656ZM248.648 66.418C248.648 66.3008 248.684 66.2018 248.754 66.1211C248.827 66.0404 248.934 66 249.074 66C249.215 66 249.322 66.0404 249.395 66.1211C249.467 66.2018 249.504 66.3008 249.504 66.418C249.504 66.5352 249.467 66.6328 249.395 66.7109C249.322 66.7891 249.215 66.8281 249.074 66.8281C248.934 66.8281 248.827 66.7891 248.754 66.7109C248.684 66.6328 248.648 66.5352 248.648 66.418Z" fill="#555555"/>
<path d="M251.984 70.7852L253.031 67.5391H253.77L252.254 71.7656H251.703L250.172 67.5391H250.91L251.984 70.7852Z" fill="#555555"/>
<path d="M257.012 71.7656C256.97 71.6823 256.936 71.5339 256.91 71.3203C256.574 71.6693 256.173 71.8438 255.707 71.8438C255.29 71.8438 254.948 71.7266 254.68 71.4922C254.414 71.2552 254.281 70.9557 254.281 70.5938C254.281 70.1536 254.448 69.8125 254.781 69.5703C255.117 69.3255 255.589 69.2031 256.195 69.2031H256.898V68.8711C256.898 68.6185 256.823 68.418 256.672 68.2695C256.521 68.1185 256.298 68.043 256.004 68.043C255.746 68.043 255.53 68.1081 255.355 68.2383C255.181 68.3685 255.094 68.526 255.094 68.7109H254.367C254.367 68.5 254.441 68.2969 254.59 68.1016C254.741 67.9036 254.944 67.7474 255.199 67.6328C255.457 67.5182 255.74 67.4609 256.047 67.4609C256.534 67.4609 256.915 67.5833 257.191 67.8281C257.467 68.0703 257.611 68.4049 257.621 68.832V70.7773C257.621 71.1654 257.671 71.474 257.77 71.7031V71.7656H257.012ZM255.812 71.2148C256.039 71.2148 256.254 71.1562 256.457 71.0391C256.66 70.9219 256.807 70.7695 256.898 70.582V69.7148H256.332C255.447 69.7148 255.004 69.974 255.004 70.4922C255.004 70.7188 255.079 70.8958 255.23 71.0234C255.382 71.151 255.576 71.2148 255.812 71.2148Z" fill="#555555"/>
<path d="M260.449 71.2539C260.707 71.2539 260.932 71.1758 261.125 71.0195C261.318 70.8633 261.424 70.668 261.445 70.4336H262.129C262.116 70.6758 262.033 70.9062 261.879 71.125C261.725 71.3438 261.52 71.5182 261.262 71.6484C261.007 71.7786 260.736 71.8438 260.449 71.8438C259.874 71.8438 259.415 71.6523 259.074 71.2695C258.736 70.8841 258.566 70.3581 258.566 69.6914V69.5703C258.566 69.1589 258.642 68.793 258.793 68.4727C258.944 68.1523 259.16 67.9036 259.441 67.7266C259.725 67.5495 260.06 67.4609 260.445 67.4609C260.919 67.4609 261.312 67.6029 261.625 67.8867C261.94 68.1706 262.108 68.5391 262.129 68.9922H261.445C261.424 68.7188 261.32 68.4948 261.133 68.3203C260.948 68.1432 260.719 68.0547 260.445 68.0547C260.078 68.0547 259.793 68.1875 259.59 68.4531C259.389 68.7161 259.289 69.0977 259.289 69.5977V69.7344C259.289 70.2214 259.389 70.5964 259.59 70.8594C259.79 71.1224 260.077 71.2539 260.449 71.2539Z" fill="#555555"/>
<path d="M264.324 70.707L265.309 67.5391H266.082L264.383 72.418C264.12 73.1211 263.702 73.4727 263.129 73.4727L262.992 73.4609L262.723 73.4102V72.8242L262.918 72.8398C263.163 72.8398 263.353 72.7904 263.488 72.6914C263.626 72.5924 263.74 72.4115 263.828 72.1484L263.988 71.7188L262.48 67.5391H263.27L264.324 70.707Z" fill="#555555"/>
<path d="M278.93 66.6953H277.102V71.7656H276.355V66.6953H274.531V66.0781H278.93V66.6953Z" fill="#555555"/>
<path d="M281.023 71.8438C280.451 71.8438 279.984 71.6562 279.625 71.2812C279.266 70.9036 279.086 70.3997 279.086 69.7695V69.6367C279.086 69.2174 279.165 68.8438 279.324 68.5156C279.486 68.1849 279.71 67.9271 279.996 67.7422C280.285 67.5547 280.598 67.4609 280.934 67.4609C281.483 67.4609 281.91 67.6419 282.215 68.0039C282.52 68.3659 282.672 68.8841 282.672 69.5586V69.8594H279.809C279.819 70.276 279.94 70.6133 280.172 70.8711C280.406 71.1263 280.703 71.2539 281.062 71.2539C281.318 71.2539 281.534 71.2018 281.711 71.0977C281.888 70.9935 282.043 70.8555 282.176 70.6836L282.617 71.0273C282.263 71.5716 281.732 71.8438 281.023 71.8438ZM280.934 68.0547C280.642 68.0547 280.397 68.1615 280.199 68.375C280.001 68.5859 279.879 68.8828 279.832 69.2656H281.949V69.2109C281.928 68.8438 281.829 68.5599 281.652 68.3594C281.475 68.1562 281.236 68.0547 280.934 68.0547Z" fill="#555555"/>
<path d="M285.555 68.1875C285.445 68.1693 285.327 68.1602 285.199 68.1602C284.725 68.1602 284.404 68.362 284.234 68.7656V71.7656H283.512V67.5391H284.215L284.227 68.0273C284.464 67.6497 284.799 67.4609 285.234 67.4609C285.375 67.4609 285.482 67.4792 285.555 67.5156V68.1875Z" fill="#555555"/>
<path d="M286.902 67.5391L286.922 68.0078C287.232 67.6432 287.65 67.4609 288.176 67.4609C288.767 67.4609 289.169 67.6875 289.383 68.1406C289.523 67.9375 289.706 67.7734 289.93 67.6484C290.156 67.5234 290.423 67.4609 290.73 67.4609C291.658 67.4609 292.129 67.9518 292.145 68.9336V71.7656H291.422V68.9766C291.422 68.6745 291.353 68.4492 291.215 68.3008C291.077 68.1497 290.845 68.0742 290.52 68.0742C290.251 68.0742 290.029 68.1549 289.852 68.3164C289.674 68.4753 289.572 68.6901 289.543 68.9609V71.7656H288.816V68.9961C288.816 68.3815 288.516 68.0742 287.914 68.0742C287.44 68.0742 287.116 68.276 286.941 68.6797V71.7656H286.219V67.5391H286.902Z" fill="#555555"/>
<path d="M295.699 70.6445C295.699 70.4492 295.625 70.2982 295.477 70.1914C295.331 70.082 295.074 69.9883 294.707 69.9102C294.342 69.832 294.052 69.7383 293.836 69.6289C293.622 69.5195 293.464 69.3893 293.359 69.2383C293.258 69.0872 293.207 68.9076 293.207 68.6992C293.207 68.3529 293.353 68.0599 293.645 67.8203C293.939 67.5807 294.314 67.4609 294.77 67.4609C295.249 67.4609 295.637 67.5846 295.934 67.832C296.233 68.0794 296.383 68.3958 296.383 68.7812H295.656C295.656 68.5833 295.572 68.4128 295.402 68.2695C295.236 68.1263 295.025 68.0547 294.77 68.0547C294.507 68.0547 294.301 68.112 294.152 68.2266C294.004 68.3411 293.93 68.4909 293.93 68.6758C293.93 68.8503 293.999 68.9818 294.137 69.0703C294.275 69.1589 294.523 69.2435 294.883 69.3242C295.245 69.4049 295.538 69.5013 295.762 69.6133C295.986 69.7253 296.151 69.8607 296.258 70.0195C296.367 70.1758 296.422 70.3672 296.422 70.5938C296.422 70.9714 296.271 71.2747 295.969 71.5039C295.667 71.7305 295.275 71.8438 294.793 71.8438C294.454 71.8438 294.155 71.7839 293.895 71.6641C293.634 71.5443 293.43 71.3776 293.281 71.1641C293.135 70.9479 293.062 70.7148 293.062 70.4648H293.785C293.798 70.707 293.895 70.8997 294.074 71.043C294.257 71.1836 294.496 71.2539 294.793 71.2539C295.066 71.2539 295.285 71.1992 295.449 71.0898C295.616 70.9779 295.699 70.8294 295.699 70.6445Z" fill="#555555"/>
<path d="M271.328 69.9648H269.277V69.1992H271.328V69.9648Z" fill="black"/>
<g filter="url(#filter1_d_814_3873)">
<path d="M280.402 23.3378C280.266 23.1691 280.127 23.0031 279.983 22.84C277.689 20.234 274.522 18.554 271.078 18.1147C267.633 17.6754 264.147 18.507 261.271 20.4537L265.388 26.5341C266.784 25.589 268.477 25.1853 270.149 25.3985C271.821 25.6118 273.358 26.4275 274.473 27.6927C274.722 27.9763 274.947 28.2781 275.145 28.5947L271.501 32.2385H283.611V20.1292L280.402 23.3378Z" fill="#1C3AA9"/>
</g>
<g filter="url(#filter2_d_814_3873)">
<path d="M269.238 18.0006H257.129L260.301 21.1724C257.931 23.0879 256.227 25.72 255.457 28.6903C254.585 32.0515 254.969 35.6152 256.536 38.7138L263.089 35.3996C262.328 33.8953 262.142 32.1651 262.565 30.5332C262.988 28.9014 263.991 27.4797 265.387 26.5346C265.442 26.4974 265.498 26.4609 265.554 26.4253L269.238 30.1099V18.0006Z" fill="#4285F4"/>
</g>
<g filter="url(#filter3_d_814_3873)">
<path d="M255 32.3716H267.109L263.451 36.0302C264.227 37.2318 265.359 38.1693 266.698 38.705C268.263 39.3311 270.003 39.3652 271.592 38.8007C273.18 38.2362 274.509 37.112 275.328 35.6385L280.624 40.9213C278.954 43.1132 276.674 44.7873 274.05 45.7197C270.778 46.8824 267.195 46.8123 263.971 45.5225C261.703 44.6152 259.722 43.1482 258.202 41.2793L255 44.4809V32.3716Z" fill="#ABABAB"/>
</g>
<path d="M62.5625 47H61.25V37.0469H62.5625V47Z" fill="black"/>
<path d="M64.8594 39.8496L64.1416 39.3574C64.5654 38.765 64.7842 38.1406 64.7979 37.4844V36.5H66.0488V37.3887C66.0443 37.8444 65.9303 38.3001 65.707 38.7559C65.4883 39.207 65.2057 39.5716 64.8594 39.8496Z" fill="black"/>
<path d="M68.626 39.6035L68.6602 40.4238C69.2025 39.7858 69.9339 39.4668 70.8545 39.4668C71.889 39.4668 72.5931 39.8633 72.9668 40.6562C73.2129 40.3008 73.5319 40.0137 73.9238 39.7949C74.3203 39.5762 74.7874 39.4668 75.3252 39.4668C76.9476 39.4668 77.7725 40.3258 77.7998 42.0439V47H76.5352V42.1191C76.5352 41.5905 76.4144 41.1963 76.1729 40.9365C75.9313 40.6722 75.5257 40.54 74.9561 40.54C74.4867 40.54 74.097 40.6813 73.7871 40.9639C73.4772 41.2419 73.2972 41.6178 73.2471 42.0918V47H71.9756V42.1533C71.9756 41.0778 71.4492 40.54 70.3965 40.54C69.5671 40.54 68.9997 40.8932 68.6943 41.5996V47H67.4297V39.6035H68.626Z" fill="black"/>
<path d="M84.3828 39.6035L84.4238 40.5332C84.9889 39.8223 85.7272 39.4668 86.6387 39.4668C88.2018 39.4668 88.9902 40.3486 89.0039 42.1123V47H87.7393V42.1055C87.7347 41.5723 87.6117 41.1781 87.3701 40.9229C87.1331 40.6676 86.7617 40.54 86.2559 40.54C85.8457 40.54 85.4857 40.6494 85.1758 40.8682C84.8659 41.0869 84.6243 41.374 84.4512 41.7295V47H83.1865V39.6035H84.3828Z" fill="black"/>
<path d="M90.5762 43.2334C90.5762 42.5088 90.7174 41.8571 91 41.2783C91.2871 40.6995 91.6836 40.2529 92.1895 39.9385C92.6999 39.624 93.2809 39.4668 93.9326 39.4668C94.9398 39.4668 95.7533 39.8154 96.373 40.5127C96.9974 41.21 97.3096 42.1374 97.3096 43.2949V43.3838C97.3096 44.1038 97.1706 44.751 96.8926 45.3252C96.6191 45.8949 96.2249 46.3392 95.71 46.6582C95.1995 46.9772 94.6117 47.1367 93.9463 47.1367C92.9437 47.1367 92.1302 46.7881 91.5059 46.0908C90.8861 45.3936 90.5762 44.4707 90.5762 43.3223V43.2334ZM91.8477 43.3838C91.8477 44.2041 92.0368 44.8626 92.415 45.3594C92.7979 45.8561 93.3083 46.1045 93.9463 46.1045C94.5889 46.1045 95.0993 45.8538 95.4775 45.3525C95.8558 44.8467 96.0449 44.1403 96.0449 43.2334C96.0449 42.4222 95.8512 41.766 95.4639 41.2646C95.0811 40.7588 94.5706 40.5059 93.9326 40.5059C93.3083 40.5059 92.8047 40.7542 92.4219 41.251C92.0391 41.7477 91.8477 42.4587 91.8477 43.3838Z" fill="black"/>
<path d="M100.611 37.8125V39.6035H101.992V40.5811H100.611V45.168C100.611 45.4642 100.673 45.6875 100.796 45.8379C100.919 45.9837 101.129 46.0566 101.425 46.0566C101.571 46.0566 101.771 46.0293 102.026 45.9746V47C101.694 47.0911 101.37 47.1367 101.056 47.1367C100.491 47.1367 100.064 46.9658 99.7773 46.624C99.4902 46.2822 99.3467 45.7969 99.3467 45.168V40.5811H98V39.6035H99.3467V37.8125H100.611Z" fill="black"/>
<path d="M111.515 47C111.442 46.8542 111.382 46.5944 111.337 46.2207C110.749 46.8314 110.047 47.1367 109.231 47.1367C108.502 47.1367 107.903 46.9316 107.434 46.5215C106.969 46.1068 106.736 45.5827 106.736 44.9492C106.736 44.179 107.028 43.582 107.611 43.1582C108.199 42.7298 109.024 42.5156 110.086 42.5156H111.316V41.9346C111.316 41.4925 111.184 41.1416 110.92 40.8818C110.656 40.6175 110.266 40.4854 109.751 40.4854C109.3 40.4854 108.922 40.5993 108.616 40.8271C108.311 41.055 108.158 41.3307 108.158 41.6543H106.887C106.887 41.2852 107.017 40.9297 107.276 40.5879C107.541 40.2415 107.896 39.9681 108.343 39.7676C108.794 39.5671 109.288 39.4668 109.826 39.4668C110.678 39.4668 111.346 39.681 111.829 40.1094C112.312 40.5332 112.563 41.1188 112.581 41.8662V45.2705C112.581 45.9495 112.668 46.4896 112.841 46.8906V47H111.515ZM109.416 46.0361C109.812 46.0361 110.188 45.9336 110.544 45.7285C110.899 45.5234 111.157 45.2568 111.316 44.9287V43.4111H110.325C108.776 43.4111 108.001 43.8646 108.001 44.7715C108.001 45.168 108.133 45.4779 108.397 45.7012C108.662 45.9245 109.001 46.0361 109.416 46.0361Z" fill="black"/>
<path d="M121.611 40.7383C121.42 40.7064 121.213 40.6904 120.989 40.6904C120.16 40.6904 119.597 41.0436 119.301 41.75V47H118.036V39.6035H119.267L119.287 40.458C119.702 39.7972 120.29 39.4668 121.051 39.4668C121.297 39.4668 121.484 39.4987 121.611 39.5625V40.7383Z" fill="black"/>
<path d="M122.309 43.2334C122.309 42.5088 122.45 41.8571 122.732 41.2783C123.02 40.6995 123.416 40.2529 123.922 39.9385C124.432 39.624 125.013 39.4668 125.665 39.4668C126.672 39.4668 127.486 39.8154 128.105 40.5127C128.73 41.21 129.042 42.1374 129.042 43.2949V43.3838C129.042 44.1038 128.903 44.751 128.625 45.3252C128.352 45.8949 127.957 46.3392 127.442 46.6582C126.932 46.9772 126.344 47.1367 125.679 47.1367C124.676 47.1367 123.863 46.7881 123.238 46.0908C122.618 45.3936 122.309 44.4707 122.309 43.3223V43.2334ZM123.58 43.3838C123.58 44.2041 123.769 44.8626 124.147 45.3594C124.53 45.8561 125.041 46.1045 125.679 46.1045C126.321 46.1045 126.832 45.8538 127.21 45.3525C127.588 44.8467 127.777 44.1403 127.777 43.2334C127.777 42.4222 127.584 41.766 127.196 41.2646C126.813 40.7588 126.303 40.5059 125.665 40.5059C125.041 40.5059 124.537 40.7542 124.154 41.251C123.771 41.7477 123.58 42.4587 123.58 43.3838Z" fill="black"/>
<path d="M136.89 43.3838C136.89 44.514 136.63 45.4232 136.11 46.1113C135.591 46.7949 134.894 47.1367 134.019 47.1367C133.084 47.1367 132.362 46.8063 131.852 46.1455L131.79 47H130.628V36.5H131.893V40.417C132.403 39.7835 133.107 39.4668 134.005 39.4668C134.903 39.4668 135.607 39.8063 136.117 40.4854C136.632 41.1644 136.89 42.0941 136.89 43.2744V43.3838ZM135.625 43.2402C135.625 42.3789 135.459 41.7135 135.126 41.2441C134.793 40.7747 134.315 40.54 133.69 40.54C132.856 40.54 132.257 40.9274 131.893 41.7021V44.9014C132.28 45.6761 132.884 46.0635 133.704 46.0635C134.31 46.0635 134.782 45.8288 135.119 45.3594C135.456 44.89 135.625 44.1836 135.625 43.2402Z" fill="black"/>
<path d="M138.154 43.2334C138.154 42.5088 138.296 41.8571 138.578 41.2783C138.865 40.6995 139.262 40.2529 139.768 39.9385C140.278 39.624 140.859 39.4668 141.511 39.4668C142.518 39.4668 143.331 39.8154 143.951 40.5127C144.576 41.21 144.888 42.1374 144.888 43.2949V43.3838C144.888 44.1038 144.749 44.751 144.471 45.3252C144.197 45.8949 143.803 46.3392 143.288 46.6582C142.778 46.9772 142.19 47.1367 141.524 47.1367C140.522 47.1367 139.708 46.7881 139.084 46.0908C138.464 45.3936 138.154 44.4707 138.154 43.3223V43.2334ZM139.426 43.3838C139.426 44.2041 139.615 44.8626 139.993 45.3594C140.376 45.8561 140.886 46.1045 141.524 46.1045C142.167 46.1045 142.677 45.8538 143.056 45.3525C143.434 44.8467 143.623 44.1403 143.623 43.2334C143.623 42.4222 143.429 41.766 143.042 41.2646C142.659 40.7588 142.149 40.5059 141.511 40.5059C140.886 40.5059 140.383 40.7542 140 41.251C139.617 41.7477 139.426 42.4587 139.426 43.3838Z" fill="black"/>
<path d="M148.189 37.8125V39.6035H149.57V40.5811H148.189V45.168C148.189 45.4642 148.251 45.6875 148.374 45.8379C148.497 45.9837 148.707 46.0566 149.003 46.0566C149.149 46.0566 149.349 46.0293 149.604 45.9746V47C149.272 47.0911 148.948 47.1367 148.634 47.1367C148.069 47.1367 147.643 46.9658 147.355 46.624C147.068 46.2822 146.925 45.7969 146.925 45.168V40.5811H145.578V39.6035H146.925V37.8125H148.189Z" fill="black"/>
<path fill-rule="evenodd" clip-rule="evenodd" d="M45.9259 30H22.0741C22.0332 30 22 30.0332 22 30.0741V53.9259C22 53.9668 22.0332 54 22.0741 54H45.9259C45.9668 54 46 53.9668 46 53.9259V30.0741C46 30.0332 45.9668 30 45.9259 30ZM45.9259 28H22.0741C20.9286 28 20 28.9286 20 30.0741V53.9259C20 55.0714 20.9286 56 22.0741 56H45.9259C47.0714 56 48 55.0714 48 53.9259V30.0741C48 28.9286 47.0714 28 45.9259 28Z" fill="#C1C1C1"/>
<rect x="22" y="30" width="24" height="24" fill="white"/>
<defs>
<filter id="filter0_d_814_3873" x="2" y="0" width="312" height="86" filterUnits="userSpaceOnUse" color-interpolation-filters="sRGB">
<feFlood flood-opacity="0" result="BackgroundImageFix"/>
<feColorMatrix in="SourceAlpha" type="matrix" values="0 0 0 0 0 0 0 0 0 0 0 0 0 0 0 0 0 0 127 0" result="hardAlpha"/>
<feMorphology radius="1" operator="dilate" in="SourceAlpha" result="effect1_dropShadow_814_3873"/>
<feOffset/>
<feGaussianBlur stdDeviation="2"/>
<feColorMatrix type="matrix" values="0 0 0 0 0 0 0 0 0 0 0 0 0 0 0 0 0 0 0.08 0"/>
<feBlend mode="normal" in2="BackgroundImageFix" result="effect1_dropShadow_814_3873"/>
<feBlend mode="normal" in="SourceGraphic" in2="effect1_dropShadow_814_3873" result="shape"/>
</filter>
<filter id="filter1_d_814_3873" x="260.271" y="17" width="24.3398" height="16.2385" filterUnits="userSpaceOnUse" color-interpolation-filters="sRGB">
<feFlood flood-opacity="0" result="BackgroundImageFix"/>
<feColorMatrix in="SourceAlpha" type="matrix" values="0 0 0 0 0 0 0 0 0 0 0 0 0 0 0 0 0 0 127 0" result="hardAlpha"/>
<feOffset/>
<feGaussianBlur stdDeviation="0.5"/>
<feColorMatrix type="matrix" values="0 0 0 0 0 0 0 0 0 0 0 0 0 0 0 0 0 0 0.38 0"/>
<feBlend mode="normal" in2="BackgroundImageFix" result="effect1_dropShadow_814_3873"/>
<feBlend mode="normal" in="SourceGraphic" in2="effect1_dropShadow_814_3873" result="shape"/>
</filter>
<filter id="filter2_d_814_3873" x="254" y="17.0006" width="16.2383" height="22.7132" filterUnits="userSpaceOnUse" color-interpolation-filters="sRGB">
<feFlood flood-opacity="0" result="BackgroundImageFix"/>
<feColorMatrix in="SourceAlpha" type="matrix" values="0 0 0 0 0 0 0 0 0 0 0 0 0 0 0 0 0 0 127 0" result="hardAlpha"/>
<feOffset/>
<feGaussianBlur stdDeviation="0.5"/>
<feColorMatrix type="matrix" values="0 0 0 0 0 0 0 0 0 0 0 0 0 0 0 0 0 0 0.38 0"/>
<feBlend mode="normal" in2="BackgroundImageFix" result="effect1_dropShadow_814_3873"/>
<feBlend mode="normal" in="SourceGraphic" in2="effect1_dropShadow_814_3873" result="shape"/>
</filter>
<filter id="filter3_d_814_3873" x="254" y="31.3716" width="27.623" height="16.1719" filterUnits="userSpaceOnUse" color-interpolation-filters="sRGB">
<feFlood flood-opacity="0" result="BackgroundImageFix"/>
<feColorMatrix in="SourceAlpha" type="matrix" values="0 0 0 0 0 0 0 0 0 0 0 0 0 0 0 0 0 0 127 0" result="hardAlpha"/>
<feOffset/>
<feGaussianBlur stdDeviation="0.5"/>
<feColorMatrix type="matrix" values="0 0 0 0 0 0 0 0 0 0 0 0 0 0 0 0 0 0 0.38 0"/>
<feBlend mode="normal" in2="BackgroundImageFix" result="effect1_dropShadow_814_3873"/>
<feBlend mode="normal" in="SourceGraphic" in2="effect1_dropShadow_814_3873" result="shape"/>
</filter>
</defs>
</svg>
