<svg width="24" height="24" viewBox="0 0 24 24" fill="none" xmlns="http://www.w3.org/2000/svg">
<path fill-rule="evenodd" clip-rule="evenodd" d="M3.35977 12.6289C3.19523 12.3818 3.06241 12.1679 2.96223 12C3.06241 11.8321 3.19523 11.6182 3.35977 11.3711C3.78238 10.7366 4.40823 9.8928 5.22076 9.05239C6.86253 7.35428 9.1579 5.77778 12.0001 5.77778C14.8423 5.77778 17.1376 7.35428 18.7794 9.05239C19.5919 9.8928 20.2178 10.7366 20.6404 11.3711C20.8049 11.6182 20.9377 11.8321 21.0379 12C20.9377 12.1679 20.8049 12.3818 20.6404 12.6289C20.2178 13.2634 19.5919 14.1072 18.7794 14.9476C17.1376 16.6457 14.8423 18.2222 12.0001 18.2222C9.1579 18.2222 6.86253 16.6457 5.22076 14.9476C4.40823 14.1072 3.78238 13.2634 3.35977 12.6289ZM22.9032 11.6019C22.9032 11.6019 23.0428 12.1268 22.9032 12.3981L22.9017 12.401L22.8986 12.4071L22.8882 12.4268C22.8794 12.4433 22.8671 12.4664 22.8511 12.4956C22.8192 12.554 22.773 12.6371 22.7125 12.7413C22.5917 12.9497 22.4138 13.2431 22.1805 13.5934C21.7151 14.2922 21.0232 15.2261 20.1169 16.1635C18.3211 18.0209 15.5747 20 12.0001 20C8.42545 20 5.67905 18.0209 3.88324 16.1635C2.97698 15.2261 2.28509 14.2922 1.81966 13.5934C1.58638 13.2431 1.40849 12.9497 1.28765 12.7413C1.2272 12.6371 1.18092 12.554 1.14903 12.4956C1.13309 12.4664 1.12073 12.4433 1.11198 12.4268L1.10158 12.4071L1.09842 12.401L1.09735 12.3989L1.09694 11.6019L1.09842 11.599L1.10158 11.5929L1.11198 11.5732C1.12073 11.5567 1.13309 11.5336 1.14903 11.5044C1.18092 11.446 1.2272 11.3629 1.28765 11.2587C1.40849 11.0503 1.58638 10.7569 1.81966 10.4066C2.28509 9.70783 2.97698 8.77386 3.88324 7.8365C5.67905 5.97906 8.42545 4 12.0001 4C15.5747 4 18.3211 5.97906 20.1169 7.8365C21.0232 8.77386 21.7151 9.70783 22.1805 10.4066C22.4138 10.7569 22.5917 11.0503 22.7125 11.2587C22.773 11.3629 22.8192 11.446 22.8511 11.5044C22.8671 11.5336 22.8794 11.5567 22.8882 11.5732L22.8986 11.5929L22.9017 11.599L22.9032 11.6019ZM22.9032 12.3981C23.0323 12.1479 23.0323 11.8521 22.9032 11.6019C22.9032 11.6019 23.0428 12.1268 22.9032 12.3981ZM1.09662 12.3975L1.09678 11.9997L1.09694 11.6019C0.967902 11.8521 0.96758 12.1473 1.09662 12.3975ZM12.0001 8.44444C11.0276 8.44444 10.0949 8.81905 9.4073 9.48584C8.71965 10.1526 8.33333 11.057 8.33333 12C8.33333 12.943 8.71965 13.8474 9.4073 14.5142C10.0949 15.181 11.0276 15.5556 12.0001 15.5556C12.9726 15.5556 13.9052 15.181 14.5929 14.5142C15.2805 13.8474 15.6668 12.943 15.6668 12C15.6668 11.057 15.2805 10.1526 14.5929 9.48584C13.9052 8.81905 12.9726 8.44444 12.0001 8.44444ZM13.2965 13.2571C12.9526 13.5905 12.4863 13.7778 12.0001 13.7778C11.5138 13.7778 11.0475 13.5905 10.7037 13.2571C10.3599 12.9237 10.1667 12.4715 10.1667 12C10.1667 11.5285 10.3599 11.0763 10.7037 10.7429C11.0475 10.4095 11.5138 10.2222 12.0001 10.2222C12.4863 10.2222 12.9526 10.4095 13.2965 10.7429C13.6403 11.0763 13.8335 11.5285 13.8335 12C13.8335 12.4715 13.6403 12.9237 13.2965 13.2571Z" fill="#B7B7B7"/>
</svg>
